<svg version="1.1" id="Layer_1" xmlns="http://www.w3.org/2000/svg" xmlns:xlink="http://www.w3.org/1999/xlink" x="0px" y="0px"
	 width="100%" viewBox="0 0 500 313" enable-background="new 0 0 500 313" xml:space="preserve">
<path fill="#000000" opacity="1.000000" stroke="none" 
	d="
M317.000000,314.000000 
	C211.365662,314.000000 106.231331,314.000000 1.048499,314.000000 
	C1.048499,209.731094 1.048499,105.462158 1.048499,1.096613 
	C167.550964,1.096613 334.102020,1.096613 500.826538,1.096613 
	C500.826538,105.333099 500.826538,209.666519 500.826538,314.000000 
	C439.795563,314.000000 378.647766,314.000000 317.000000,314.000000 
M383.043365,92.970474 
	C383.043365,92.970474 383.100891,92.943779 382.997864,92.235222 
	C382.034027,90.473236 381.070160,88.711250 380.003265,86.288002 
	C379.373840,85.177818 378.744446,84.067635 378.001678,82.266792 
	C376.681854,80.473000 375.362030,78.679199 373.981750,76.180817 
	C371.473633,72.755249 368.977417,69.320877 366.455353,65.905609 
	C353.492798,48.352135 336.865936,35.020287 317.508759,25.390213 
	C303.595642,18.468515 288.779785,14.033563 273.185913,11.711040 
	C256.622406,9.244101 240.205170,9.349723 223.954605,12.270255 
	C207.513428,15.225041 191.850494,20.936350 177.186157,29.290514 
	C160.451202,38.824299 146.276169,51.330162 134.479828,66.317307 
	C122.859589,81.080719 114.443100,97.693443 109.474098,115.965172 
	C103.952827,136.267624 102.324379,156.884491 105.173332,177.661789 
	C107.516045,194.747101 112.824455,211.031326 121.043610,226.319885 
	C131.784882,246.299835 146.550888,262.674255 164.673553,276.186951 
	C188.459351,293.922180 215.772354,301.654633 244.802185,303.794281 
	C253.743347,304.453278 262.880035,302.847015 271.898621,301.980774 
	C287.041565,300.526276 301.410217,296.034424 315.001801,289.411346 
	C336.441498,278.963928 354.267334,264.075256 368.679016,244.944427 
	C389.234406,217.658035 398.812378,187.040039 397.965454,152.101105 
	C397.505920,133.649323 393.447388,115.969353 386.386047,98.968201 
	C385.739868,97.412468 384.178711,96.236794 383.017944,94.500137 
	C383.017944,94.500137 383.042938,94.115677 383.502228,93.915276 
	C383.601959,93.781746 383.802948,93.546898 383.786072,93.530037 
	C383.561035,93.305115 383.305542,93.110687 383.043365,92.970474 
z"/>
<path fill="#007DB8" opacity="1.000000" stroke="none" 
	d="
M397.833405,153.000061 
	C398.812378,187.040039 389.234406,217.658035 368.679016,244.944427 
	C354.267334,264.075256 336.441498,278.963928 315.001801,289.411346 
	C301.410217,296.034424 287.041565,300.526276 271.898621,301.980774 
	C262.880035,302.847015 253.743347,304.453278 244.802185,303.794281 
	C215.772354,301.654633 188.459351,293.922180 164.673553,276.186951 
	C146.550888,262.674255 131.784882,246.299835 121.043610,226.319885 
	C112.824455,211.031326 107.516045,194.747101 105.173332,177.661789 
	C102.324379,156.884491 103.952827,136.267624 109.474098,115.965172 
	C114.443100,97.693443 122.859589,81.080719 134.479828,66.317307 
	C146.276169,51.330162 160.451202,38.824299 177.186157,29.290514 
	C191.850494,20.936350 207.513428,15.225041 223.954605,12.270255 
	C240.205170,9.349723 256.622406,9.244101 273.185913,11.711040 
	C288.779785,14.033563 303.595642,18.468515 317.508759,25.390213 
	C336.865936,35.020287 353.492798,48.352135 366.455353,65.905609 
	C368.977417,69.320877 371.473633,72.755249 374.010376,76.934891 
	C375.026001,79.459312 376.013000,81.229652 376.959656,83.377914 
	C375.181549,85.144066 373.544037,87.526237 371.685211,87.713623 
	C367.812897,88.104027 363.823517,87.333313 359.614380,86.903297 
	C359.193512,86.192902 359.040588,85.618919 359.014954,84.768997 
	C358.062164,83.348183 356.982086,82.203331 355.932251,81.046829 
	C355.962494,81.035179 355.939514,81.095779 355.901062,80.725845 
	C354.791656,78.173294 353.355835,76.081657 352.780792,73.775391 
	C352.410492,72.290169 352.977478,70.320122 353.725098,68.879013 
	C354.451050,67.479713 355.943726,66.478195 357.099731,65.302002 
	C355.121124,64.292313 353.221527,62.671062 351.147125,62.403152 
	C347.111847,61.881992 342.978607,62.119823 338.581909,61.898735 
	C331.715454,56.865364 325.349884,51.681507 318.552063,47.145332 
	C301.121246,35.513691 281.487976,29.854530 260.880035,28.174847 
	C245.568283,26.926836 230.331818,28.592926 215.390182,32.903419 
	C196.466797,38.362606 179.692276,47.624813 165.043549,60.575191 
	C150.422318,73.501282 139.618195,89.245941 131.868256,107.235733 
	C121.285225,131.801941 119.566452,157.066238 124.512779,183.073547 
	C127.045891,196.392334 132.080963,208.727707 138.791870,220.436325 
	C147.061371,234.864243 157.234970,247.754623 170.575058,257.779907 
	C188.888184,271.542480 209.027145,280.859894 232.053131,284.350311 
	C246.527969,286.544434 260.646362,285.849182 274.753326,283.495239 
	C289.182739,281.087463 302.752258,276.008179 315.419128,268.344208 
	C331.376221,258.689484 345.392365,247.099442 356.085449,231.685120 
	C371.052063,210.110489 379.250397,186.283707 380.330017,159.891251 
	C380.384521,159.188477 380.275574,158.594299 380.100586,157.559708 
	C380.078491,154.746140 380.122406,152.373001 380.418396,149.796753 
	C381.113647,148.395752 381.556824,147.197876 382.300171,146.184479 
	C384.400208,146.912628 386.200104,147.456314 388.172394,148.299500 
	C391.507660,150.066040 394.670532,151.533051 397.833405,153.000061 
z"/>
<path fill="#007CB7" opacity="1.000000" stroke="none" 
	d="
M388.000000,148.000000 
	C386.200104,147.456314 384.400208,146.912628 382.215820,145.817368 
	C381.709656,143.484421 381.955627,141.575150 381.389740,139.948288 
	C380.208771,136.553314 378.598938,133.307510 377.099304,129.608597 
	C376.984283,128.159225 376.935242,127.101677 377.143829,125.804337 
	C378.251434,122.541687 379.101410,119.518829 380.190582,115.645187 
	C380.606812,115.462273 382.022675,114.840027 383.003784,114.408852 
	C381.278534,112.166214 380.089355,109.146416 377.960297,108.164368 
	C373.722900,106.209869 371.219879,103.004517 368.908997,99.341576 
	C368.771362,99.123405 368.310455,99.109146 368.000000,98.750000 
	C368.000000,98.500000 368.000000,98.000000 368.067902,97.642807 
	C369.965576,95.927589 371.670563,94.334435 373.660492,93.278107 
	C375.623566,92.236015 377.875061,91.737175 380.233337,91.201462 
	C381.344727,91.916557 382.222809,92.430168 383.100891,92.943787 
	C383.100891,92.943779 383.043365,92.970474 383.042145,93.241531 
	C383.041595,93.713615 383.042267,93.914650 383.042938,94.115677 
	C383.042938,94.115677 383.017944,94.500137 383.027374,95.110886 
	C385.567963,104.244453 388.239746,112.729057 390.569122,121.306671 
	C391.683929,125.411797 392.553192,129.672318 392.771729,133.901810 
	C392.924835,136.864914 390.811188,139.939667 393.801208,142.700195 
	C394.110657,142.985916 393.279083,145.190903 392.453796,145.862366 
	C391.211700,146.872955 389.507660,147.315811 388.000000,148.000000 
M375.638733,101.540565 
	C376.049561,101.023590 376.460388,100.506615 376.871216,99.989639 
	C376.137177,99.851830 375.403107,99.714012 374.669098,99.576195 
	C374.826660,100.199226 374.984222,100.822258 375.638733,101.540565 
z"/>
<path fill="#007DB8" opacity="1.000000" stroke="none" 
	d="
M388.172394,148.299515 
	C389.507660,147.315811 391.211700,146.872955 392.453796,145.862366 
	C393.279083,145.190903 394.110657,142.985916 393.801208,142.700195 
	C390.811188,139.939667 392.924835,136.864914 392.771729,133.901810 
	C392.553192,129.672318 391.683929,125.411797 390.569122,121.306671 
	C388.239746,112.729057 385.567963,104.244453 383.039612,95.303139 
	C384.178711,96.236794 385.739868,97.412468 386.386047,98.968201 
	C393.447388,115.969353 397.505920,133.649323 397.899414,152.550583 
	C394.670532,151.533051 391.507660,150.066040 388.172394,148.299515 
z"/>
<path fill="#007DB8" opacity="1.000000" stroke="none" 
	d="
M359.882263,87.039719 
	C363.823517,87.333313 367.812897,88.104027 371.685211,87.713623 
	C373.544037,87.526237 375.181549,85.144066 377.238403,83.367279 
	C377.743347,82.971634 377.929199,82.964539 378.115021,82.957451 
	C378.744446,84.067635 379.373840,85.177818 379.886322,86.929001 
	C379.512909,88.713333 379.256439,89.856667 378.563416,90.999634 
	C373.455017,91.500046 367.596008,88.117966 364.594543,94.873383 
	C362.827179,92.146721 361.354706,89.593224 359.882263,87.039719 
z"/>
<path fill="#007DB8" opacity="1.000000" stroke="none" 
	d="
M378.058350,82.612122 
	C377.929199,82.964539 377.743347,82.971634 377.278748,82.989357 
	C376.013000,81.229652 375.026001,79.459312 374.040588,77.287186 
	C375.362030,78.679199 376.681854,80.473000 378.058350,82.612122 
z"/>
<path fill="#007DB8" opacity="1.000000" stroke="none" 
	d="
M379.000000,91.000000 
	C379.256439,89.856667 379.512909,88.713333 379.937866,87.259628 
	C381.070160,88.711250 382.034027,90.473236 383.049377,92.589508 
	C382.222809,92.430168 381.344727,91.916557 379.983337,91.201469 
	C379.500000,91.000000 379.000000,91.000000 379.000000,91.000000 
z"/>
<path fill="#007DB8" opacity="1.000000" stroke="none" 
	d="
M383.272583,94.015472 
	C383.042267,93.914650 383.041595,93.713615 383.049255,93.210632 
	C383.305542,93.110687 383.561035,93.305115 383.786072,93.530037 
	C383.802948,93.546898 383.601959,93.781746 383.272583,94.015472 
z"/>
<path fill="#000000" opacity="1.000000" stroke="none" 
	d="
M359.614380,86.903305 
	C361.354706,89.593224 362.827179,92.146721 364.641602,95.136490 
	C365.377930,96.332977 365.772308,97.093193 366.138916,98.128906 
	C366.740967,99.214020 367.370789,100.023613 368.324829,101.051834 
	C371.394745,109.528351 374.140472,117.786232 376.886200,126.044113 
	C376.935242,127.101677 376.984283,128.159225 377.053772,130.015442 
	C378.104919,137.209366 379.135620,143.604599 380.166321,149.999847 
	C380.122406,152.373001 380.078491,154.746140 380.038055,157.891052 
	C380.083221,159.108475 380.124908,159.554169 380.166595,159.999847 
	C379.250397,186.283707 371.052063,210.110489 356.085449,231.685120 
	C345.392365,247.099442 331.376221,258.689484 315.419128,268.344208 
	C302.752258,276.008179 289.182739,281.087463 274.753326,283.495239 
	C260.646362,285.849182 246.527969,286.544434 232.053131,284.350311 
	C209.027145,280.859894 188.888184,271.542480 170.575058,257.779907 
	C157.234970,247.754623 147.061371,234.864243 138.791870,220.436325 
	C132.080963,208.727707 127.045891,196.392334 124.512779,183.073547 
	C119.566452,157.066238 121.285225,131.801941 131.868256,107.235733 
	C139.618195,89.245941 150.422318,73.501282 165.043549,60.575191 
	C179.692276,47.624813 196.466797,38.362606 215.390182,32.903419 
	C230.331818,28.592926 245.568283,26.926836 260.880035,28.174847 
	C281.487976,29.854530 301.121246,35.513691 318.552063,47.145332 
	C325.349884,51.681507 331.715454,56.865364 338.728577,62.202263 
	C344.765961,68.798805 350.352753,74.947289 355.939514,81.095779 
	C355.939514,81.095779 355.962494,81.035179 355.980347,81.372787 
	C356.961334,82.821915 357.924500,83.933434 358.887634,85.044952 
	C359.040588,85.618919 359.193512,86.192902 359.614380,86.903305 
M228.296753,123.997650 
	C227.492783,124.650948 226.688812,125.304253 225.215424,126.012909 
	C223.796188,126.970062 222.376968,127.927216 220.249481,129.000244 
	C213.794678,133.319397 207.339874,137.638535 200.499893,141.982849 
	C200.499893,141.982849 200.114716,141.957611 199.803329,141.315063 
	C198.222488,138.844940 196.641647,136.374802 195.039246,133.965134 
	C195.039246,133.965134 195.099564,133.943176 194.997482,133.248611 
	C190.408020,125.808250 183.076111,123.316566 174.071396,122.034760 
	C163.839523,122.034760 153.607666,122.034760 143.340897,122.034760 
	C143.340897,142.987579 143.340897,163.311844 143.340897,183.833450 
	C151.786453,183.833450 159.893417,183.833450 168.908112,183.965088 
	C177.715530,184.492630 185.841156,183.020355 192.034698,176.034058 
	C192.034698,176.034058 192.060577,176.095047 192.674805,175.798111 
	C195.155121,171.545975 197.635437,167.293823 200.711990,163.254303 
	C201.769623,163.850372 202.827255,164.446457 204.168304,165.636292 
	C205.098282,166.129532 206.028244,166.622757 207.224579,167.698669 
	C208.134705,168.169907 209.044815,168.641159 210.251740,169.725113 
	C218.486359,175.313309 226.686417,180.954041 234.999054,186.423645 
	C236.046066,187.112549 237.685471,186.901138 239.682648,187.005981 
	C240.469193,186.375916 241.255753,185.745850 242.754120,184.999268 
	C244.288544,184.087189 245.864807,183.238129 247.350372,182.252411 
	C254.929977,177.223190 262.486176,172.158691 270.643066,167.008057 
	C271.109406,166.710632 271.575775,166.413208 272.678864,166.028564 
	C273.105377,166.057571 273.531860,166.086578 273.990936,167.036819 
	C273.990936,172.620087 273.990936,178.203354 273.990936,183.701508 
	C288.721985,183.701508 302.638092,183.701508 316.620544,183.701508 
	C316.620544,177.023331 316.620544,170.650146 316.620544,164.341049 
	C309.908356,163.986206 303.578125,163.651550 296.897522,163.298386 
	C296.897522,149.040512 296.897522,135.782898 296.897522,122.340065 
	C289.108826,122.340065 281.737823,122.340065 273.997925,122.340065 
	C273.997925,128.308472 274.184814,133.953247 273.879425,139.571259 
	C273.792358,141.172485 272.663635,143.262909 271.350464,144.162018 
	C263.521759,149.522293 255.560532,154.698853 247.484619,159.679001 
	C246.041702,160.568802 243.854477,160.251602 242.010925,160.491714 
	C241.935196,160.062073 241.859451,159.632431 241.783722,159.202789 
	C251.221207,152.869064 260.658691,146.535355 270.455750,139.960312 
	C266.533142,137.389008 262.894043,135.450485 259.812164,132.851257 
	C257.014709,130.491882 255.080002,131.243225 252.433670,132.968964 
	C244.626663,138.060120 236.676727,142.937668 228.674866,147.718277 
	C227.498108,148.421310 225.735489,148.143707 224.243927,148.319839 
	C224.154633,147.777756 224.065338,147.235687 223.976044,146.693604 
	C231.076843,142.105789 238.227158,137.592300 245.262268,132.905884 
	C250.590805,129.356293 250.126740,125.841896 243.811539,122.339828 
	C237.618073,116.963356 237.012161,117.324562 228.964310,123.959007 
	C228.964310,123.959007 228.945099,123.898804 228.296753,123.997650 
M364.000946,175.460617 
	C364.000946,171.718109 364.000946,167.975586 364.000946,163.828949 
	C356.952026,163.828949 350.696655,163.828949 343.877991,163.828949 
	C343.877991,149.723007 343.877991,136.026367 343.877991,122.421921 
	C335.923035,122.421921 328.556091,122.421921 321.283264,122.421921 
	C321.283264,143.070526 321.283264,163.296051 321.283264,183.663177 
	C335.589142,183.663177 349.608582,183.663177 364.000977,183.663177 
	C364.000977,181.033493 364.000977,178.731583 364.000946,175.460617 
z"/>
<path fill="#007DB8" opacity="1.000000" stroke="none" 
	d="
M355.901062,80.725845 
	C350.352753,74.947289 344.765961,68.798805 339.032562,62.346790 
	C342.978607,62.119823 347.111847,61.881992 351.147125,62.403152 
	C353.221527,62.671062 355.121124,64.292313 357.099731,65.302002 
	C355.943726,66.478195 354.451050,67.479713 353.725098,68.879013 
	C352.977478,70.320122 352.410492,72.290169 352.780792,73.775391 
	C353.355835,76.081657 354.791656,78.173294 355.901062,80.725845 
z"/>
<path fill="#007DB8" opacity="1.000000" stroke="none" 
	d="
M380.418396,149.796753 
	C379.135620,143.604599 378.104919,137.209366 377.119751,130.407257 
	C378.598938,133.307510 380.208771,136.553314 381.389740,139.948288 
	C381.955627,141.575150 381.709656,143.484421 381.915680,145.632904 
	C381.556824,147.197876 381.113647,148.395752 380.418396,149.796753 
z"/>
<path fill="#007DB8" opacity="1.000000" stroke="none" 
	d="
M359.014954,84.768997 
	C357.924500,83.933434 356.961334,82.821915 355.950104,81.384430 
	C356.982086,82.203331 358.062164,83.348183 359.014954,84.768997 
z"/>
<path fill="#007DB8" opacity="1.000000" stroke="none" 
	d="
M380.330017,159.891251 
	C380.124908,159.554169 380.083221,159.108475 380.104065,158.331451 
	C380.275574,158.594299 380.384521,159.188477 380.330017,159.891251 
z"/>
<path fill="#007DB8" opacity="1.000000" stroke="none" 
	d="
M377.143829,125.804329 
	C374.140472,117.786232 371.394745,109.528351 368.324615,100.746300 
	C368.000153,99.814758 368.000061,99.407379 368.000000,99.000000 
	C368.310455,99.109146 368.771362,99.123405 368.908997,99.341576 
	C371.219879,103.004517 373.722900,106.209869 377.960297,108.164368 
	C380.089355,109.146416 381.278534,112.166214 383.003784,114.408852 
	C382.022675,114.840027 380.606812,115.462273 380.190582,115.645187 
	C379.101410,119.518829 378.251434,122.541687 377.143829,125.804329 
z"/>
<path fill="#007DB8" opacity="1.000000" stroke="none" 
	d="
M366.166656,97.853401 
	C365.772308,97.093193 365.377930,96.332977 364.936523,95.309662 
	C367.596008,88.117966 373.455017,91.500046 378.563416,90.999634 
	C379.000000,91.000000 379.500000,91.000000 379.750000,91.000000 
	C377.875061,91.737175 375.623566,92.236015 373.660492,93.278107 
	C371.670563,94.334435 369.965576,95.927589 367.609558,97.606064 
	C366.777740,97.902138 366.472198,97.877769 366.166656,97.853401 
z"/>
<path fill="#007DB8" opacity="1.000000" stroke="none" 
	d="
M375.390259,101.492920 
	C374.984222,100.822258 374.826660,100.199226 374.669067,99.576202 
	C375.403107,99.714012 376.137177,99.851830 376.871216,99.989639 
	C376.460388,100.506615 376.049561,101.023590 375.390259,101.492920 
z"/>
<path fill="#007DB8" opacity="1.000000" stroke="none" 
	d="
M366.138916,98.128906 
	C366.472198,97.877769 366.777740,97.902138 367.541656,97.963257 
	C368.000000,98.000000 368.000000,98.500000 368.000000,98.750000 
	C368.000061,99.407379 368.000153,99.814758 368.000427,100.527672 
	C367.370789,100.023613 366.740967,99.214020 366.138916,98.128906 
z"/>
<path fill="#007CB8" opacity="1.000000" stroke="none" 
	d="
M272.042114,166.115784 
	C271.575775,166.413208 271.109406,166.710632 270.056061,166.952499 
	C265.835724,168.227890 262.002838,169.184494 258.620850,170.987061 
	C254.629318,173.114502 250.838425,175.741241 247.327667,178.602036 
	C245.205658,180.331207 243.780548,182.915634 242.042313,185.115784 
	C241.255753,185.745850 240.469193,186.375916 239.108795,186.833588 
	C232.470978,182.165527 226.406998,177.669861 219.539093,172.578171 
	C222.793945,171.403809 224.800827,170.679733 226.807693,169.955643 
	C226.754578,169.674561 226.701462,169.393478 226.648346,169.112396 
	C221.083878,169.112396 215.519409,169.112396 209.954941,169.112396 
	C209.044815,168.641159 208.134705,168.169907 206.921936,167.132874 
	C205.707809,166.058899 204.796356,165.550705 203.884888,165.042526 
	C202.827255,164.446457 201.769623,163.850372 200.108643,163.295456 
	C196.810257,165.670685 194.115189,168.004761 191.318253,170.427094 
	C191.546906,172.172882 191.803741,174.133972 192.060577,176.095047 
	C192.060577,176.095047 192.034698,176.034058 191.684448,176.087616 
	C183.906509,178.352707 176.475464,180.553177 169.059998,182.804977 
	C168.641296,182.932129 168.350632,183.480896 168.000381,183.833450 
	C159.893417,183.833450 151.786453,183.833450 143.340897,183.833450 
	C143.340897,163.311844 143.340897,142.987579 143.340897,122.034760 
	C153.607666,122.034760 163.839523,122.034760 174.688965,122.408218 
	C176.515381,123.542313 177.697189,124.350555 178.938019,125.054878 
	C183.013489,127.368179 187.104584,129.654175 191.202408,131.927734 
	C192.480713,132.636948 193.799377,133.273407 195.099564,133.943176 
	C195.099564,133.943176 195.039246,133.965134 195.024338,134.307739 
	C194.074463,138.928284 195.422638,141.611069 200.114716,141.957611 
	C200.114716,141.957611 200.499893,141.982849 201.086929,141.954071 
	C209.882217,140.210907 216.103012,135.557648 220.957733,128.884369 
	C222.376968,127.927216 223.796188,126.970062 225.868286,125.920273 
	C227.329132,125.184700 228.137115,124.541756 228.945099,123.898804 
	C228.945099,123.898804 228.964310,123.959007 229.310364,123.909470 
	C234.359558,121.696014 239.146286,120.871918 244.114609,122.957642 
	C250.126740,125.841896 250.590805,129.356293 245.262268,132.905884 
	C238.227158,137.592300 231.076843,142.105789 223.976044,146.693604 
	C224.065338,147.235687 224.154633,147.777756 224.243927,148.319839 
	C225.735489,148.143707 227.498108,148.421310 228.674866,147.718277 
	C236.676727,142.937668 244.626663,138.060120 252.433670,132.968964 
	C255.080002,131.243225 257.014709,130.491882 259.812164,132.851257 
	C262.894043,135.450485 266.533142,137.389008 270.455750,139.960312 
	C260.658691,146.535355 251.221207,152.869064 241.783722,159.202789 
	C241.859451,159.632431 241.935196,160.062073 242.010925,160.491714 
	C243.854477,160.251602 246.041702,160.568802 247.484619,159.679001 
	C255.560532,154.698853 263.521759,149.522293 271.350464,144.162018 
	C272.663635,143.262909 273.792358,141.172485 273.879425,139.571259 
	C274.184814,133.953247 273.997925,128.308472 273.997925,122.340065 
	C281.737823,122.340065 289.108826,122.340065 296.897522,122.340065 
	C296.897522,135.782898 296.897522,149.040512 296.897522,163.298386 
	C303.578125,163.651550 309.908356,163.986206 316.620544,164.341049 
	C316.620544,170.650146 316.620544,177.023331 316.620544,183.701508 
	C302.638092,183.701508 288.721985,183.701508 273.990936,183.701508 
	C273.990936,178.203354 273.990936,172.620087 273.878113,166.396454 
	C273.190887,165.875992 272.616486,165.995880 272.042114,166.115784 
M168.267090,142.005966 
	C167.183456,142.801636 165.194504,143.560211 165.160156,144.398849 
	C164.897705,150.807205 165.016174,157.231171 165.016174,163.590073 
	C177.597672,164.810379 182.167770,155.719177 178.978317,148.304840 
	C177.102829,143.945053 173.076599,143.065948 168.267090,142.005966 
z"/>
<path fill="#007CB8" opacity="1.000000" stroke="none" 
	d="
M364.000977,175.945145 
	C364.000977,178.731583 364.000977,181.033493 364.000977,183.663177 
	C349.608582,183.663177 335.589142,183.663177 321.283264,183.663177 
	C321.283264,163.296051 321.283264,143.070526 321.283264,122.421921 
	C328.556091,122.421921 335.923035,122.421921 343.877991,122.421921 
	C343.877991,136.026367 343.877991,149.723007 343.877991,163.828949 
	C350.696655,163.828949 356.952026,163.828949 364.000946,163.828949 
	C364.000946,167.975586 364.000946,171.718109 364.000977,175.945145 
z"/>
<path fill="#007DB8" opacity="1.000000" stroke="none" 
	d="
M210.103333,169.418762 
	C215.519409,169.112396 221.083878,169.112396 226.648346,169.112396 
	C226.701462,169.393478 226.754578,169.674561 226.807693,169.955643 
	C224.800827,170.679733 222.793945,171.403809 219.539093,172.578171 
	C226.406998,177.669861 232.470978,182.165527 238.792679,186.884033 
	C237.685471,186.901138 236.046066,187.112549 234.999054,186.423645 
	C226.686417,180.954041 218.486359,175.313309 210.103333,169.418762 
z"/>
<path fill="#007DB8" opacity="1.000000" stroke="none" 
	d="
M242.398224,185.057526 
	C243.780548,182.915634 245.205658,180.331207 247.327667,178.602036 
	C250.838425,175.741241 254.629318,173.114502 258.620850,170.987061 
	C262.002838,169.184494 265.835724,168.227890 269.759827,167.001740 
	C262.486176,172.158691 254.929977,177.223190 247.350372,182.252411 
	C245.864807,183.238129 244.288544,184.087189 242.398224,185.057526 
z"/>
<path fill="#007DB8" opacity="1.000000" stroke="none" 
	d="
M168.454254,183.899261 
	C168.350632,183.480896 168.641296,182.932129 169.059998,182.804977 
	C176.475464,180.553177 183.906509,178.352707 191.714966,176.100510 
	C185.841156,183.020355 177.715530,184.492630 168.454254,183.899261 
z"/>
<path fill="#007DB8" opacity="1.000000" stroke="none" 
	d="
M220.603607,128.942307 
	C216.103012,135.557648 209.882217,140.210907 201.279510,141.941483 
	C207.339874,137.638535 213.794678,133.319397 220.603607,128.942307 
z"/>
<path fill="#007DB8" opacity="1.000000" stroke="none" 
	d="
M195.048523,133.595886 
	C193.799377,133.273407 192.480713,132.636948 191.202408,131.927734 
	C187.104584,129.654175 183.013489,127.368179 178.938019,125.054878 
	C177.697189,124.350555 176.515381,123.542313 175.153534,122.474251 
	C183.076111,123.316566 190.408020,125.808250 195.048523,133.595886 
z"/>
<path fill="#007DB8" opacity="1.000000" stroke="none" 
	d="
M192.367691,175.946579 
	C191.803741,174.133972 191.546906,172.172882 191.318253,170.427094 
	C194.115189,168.004761 196.810257,165.670685 199.810532,163.189148 
	C197.635437,167.293823 195.155121,171.545975 192.367691,175.946579 
z"/>
<path fill="#007DB8" opacity="1.000000" stroke="none" 
	d="
M243.963074,122.648735 
	C239.146286,120.871918 234.359558,121.696014 229.280243,123.899933 
	C237.012161,117.324562 237.618073,116.963356 243.963074,122.648735 
z"/>
<path fill="#007DB8" opacity="1.000000" stroke="none" 
	d="
M199.959015,141.636337 
	C195.422638,141.611069 194.074463,138.928284 195.035126,134.277527 
	C196.641647,136.374802 198.222488,138.844940 199.959015,141.636337 
z"/>
<path fill="#007DB8" opacity="1.000000" stroke="none" 
	d="
M228.620926,123.948227 
	C228.137115,124.541756 227.329132,125.184700 226.203003,125.892593 
	C226.688812,125.304253 227.492783,124.650948 228.620926,123.948227 
z"/>
<path fill="#007DB8" opacity="1.000000" stroke="none" 
	d="
M204.026596,165.339417 
	C204.796356,165.550705 205.707809,166.058899 206.788757,166.841537 
	C206.028244,166.622757 205.098282,166.129532 204.026596,165.339417 
z"/>
<path fill="#007DB8" opacity="1.000000" stroke="none" 
	d="
M272.360474,166.072174 
	C272.616486,165.995880 273.190887,165.875992 273.861816,165.935852 
	C273.531860,166.086578 273.105377,166.057571 272.360474,166.072174 
z"/>
<path fill="#000000" opacity="1.000000" stroke="none" 
	d="
M168.696594,142.010773 
	C173.076599,143.065948 177.102829,143.945053 178.978317,148.304840 
	C182.167770,155.719177 177.597672,164.810379 165.016174,163.590073 
	C165.016174,157.231171 164.897705,150.807205 165.160156,144.398849 
	C165.194504,143.560211 167.183456,142.801636 168.696594,142.010773 
z"/>
</svg>